<?xml version="1.0" standalone="no"?>
<!DOCTYPE svg PUBLIC "-//W3C//DTD SVG 20010904//EN"
 "http://www.w3.org/TR/2001/REC-SVG-20010904/DTD/svg10.dtd">
<svg version="1.0" xmlns="http://www.w3.org/2000/svg"
 width="975.000000pt" height="172.000000pt" viewBox="0 0 975.000000 172.000000"
 preserveAspectRatio="xMidYMid meet">

<g transform="translate(0.000000,172.000000) scale(0.100000,-0.100000)"
fill="#ffffff" stroke="none">
<path d="M760 1641 l0 -79 -167 -4 c-147 -3 -174 -6 -216 -26 -68 -30 -120
-74 -155 -130 -50 -76 -62 -144 -62 -334 l0 -168 149 0 149 0 3 118 c4 109 6
122 31 159 42 64 93 83 221 83 l107 0 0 230 0 230 -30 0 -30 0 0 -79z"/>
<path d="M900 1411 l0 -151 105 0 c109 0 159 -12 198 -48 25 -22 57 -86 57
-112 0 -19 6 -20 151 -20 l151 0 -3 113 c-4 98 -8 119 -32 168 -33 69 -99 132
-175 167 -55 26 -65 27 -254 30 l-198 4 0 -151z"/>
<path d="M2223 1222 c-133 -47 -208 -143 -233 -295 -27 -169 50 -336 187 -405
185 -94 437 -11 497 165 28 80 26 83 -53 83 -67 0 -69 -1 -76 -27 -18 -73
-100 -132 -184 -133 -104 0 -185 56 -217 152 -22 67 -15 177 14 235 78 152
305 160 374 13 l23 -49 68 -1 c63 0 67 1 67 23 0 36 -45 121 -84 161 -65 65
-128 89 -236 93 -74 3 -107 -1 -147 -15z"/>
<path d="M3010 1231 c-101 -33 -178 -98 -227 -193 -22 -44 -27 -69 -31 -149
-7 -155 36 -259 138 -334 71 -52 122 -68 225 -68 121 -1 189 25 266 102 78 79
103 144 103 276 1 92 -2 105 -31 167 -38 81 -97 142 -172 176 -46 21 -73 27
-151 29 -52 1 -106 -1 -120 -6z m161 -122 c148 -32 220 -221 144 -375 -39 -78
-90 -114 -172 -121 -101 -9 -179 32 -226 121 -33 63 -31 193 4 261 28 55 86
102 140 115 48 11 52 11 110 -1z"/>
<path d="M7953 1226 c-215 -70 -314 -334 -206 -551 34 -68 111 -139 181 -166
80 -31 214 -31 294 0 232 90 301 425 127 616 -74 81 -139 109 -259 112 -60 2
-110 -2 -137 -11z m228 -137 c82 -41 123 -127 118 -241 -5 -99 -37 -162 -103
-202 -128 -79 -296 -17 -336 125 -6 19 -10 63 -10 99 0 189 170 301 331 219z"/>
<path d="M8666 1225 c-105 -40 -156 -104 -156 -194 0 -131 73 -190 274 -221
121 -19 160 -45 160 -107 0 -71 -89 -115 -201 -98 -56 8 -96 44 -114 103 l-12
42 -69 0 c-77 0 -76 1 -52 -79 20 -67 78 -131 147 -162 43 -19 69 -23 149 -23
91 0 102 2 165 35 53 27 73 44 97 82 67 109 34 242 -73 296 -38 20 -105 36
-186 47 -108 14 -159 55 -139 111 15 44 54 65 120 66 77 0 117 -21 140 -73
l18 -40 63 0 c61 0 63 1 63 25 0 64 -54 140 -125 178 -52 27 -210 34 -269 12z"/>
<path d="M9326 1225 c-105 -40 -156 -104 -156 -194 0 -131 73 -190 274 -221
120 -19 160 -45 160 -106 0 -68 -83 -113 -187 -101 -67 8 -97 32 -122 95 l-20
52 -67 0 c-77 0 -76 1 -52 -79 20 -67 78 -131 147 -162 43 -19 69 -23 149 -23
91 0 102 2 165 35 53 27 73 44 97 82 67 109 34 242 -73 296 -38 20 -105 36
-186 47 -108 14 -159 55 -139 111 15 44 54 65 120 66 77 0 117 -21 140 -73
l18 -40 63 0 c61 0 63 1 63 25 0 64 -54 140 -125 178 -52 27 -210 34 -269 12z"/>
<path d="M3570 860 l0 -370 70 0 71 0 -4 308 c-1 169 -7 318 -12 331 -6 18 -5
23 6 19 8 -3 43 -109 90 -274 42 -148 83 -295 93 -326 l17 -58 88 0 88 0 94
330 c64 225 98 330 108 330 9 0 11 -5 5 -17 -5 -10 -10 -159 -12 -330 l-3
-313 71 0 70 0 0 370 0 370 -124 0 c-110 0 -125 -2 -130 -17 -46 -157 -156
-576 -156 -596 0 -42 -18 -31 -25 16 -4 23 -41 167 -83 320 l-75 277 -124 0
-123 0 0 -370z"/>
<path d="M4530 860 l0 -370 70 0 70 0 0 304 c0 174 -4 316 -10 330 -7 20 -6
26 4 26 9 0 43 -107 107 -330 l93 -331 89 3 90 3 92 323 c51 178 95 326 99
329 13 14 17 -7 7 -44 -7 -23 -11 -153 -11 -325 l0 -288 75 0 75 0 0 370 0
370 -127 0 -128 0 -75 -273 c-41 -149 -77 -292 -80 -316 -6 -53 -30 -69 -30
-21 0 26 -114 460 -151 578 l-11 32 -124 0 -124 0 0 -370z"/>
<path d="M5572 867 c-72 -201 -132 -367 -132 -371 0 -3 35 -6 78 -6 l78 0 28
85 27 86 156 -3 156 -3 27 -80 27 -80 81 -3 82 -3 -25 68 c-14 37 -74 203
-134 368 l-109 300 -104 3 -103 3 -133 -364z m252 235 c3 -27 26 -109 51 -182
25 -74 45 -135 45 -137 0 -2 -51 -3 -114 -3 l-115 0 50 143 c27 78 49 158 49
178 0 35 6 49 20 49 4 0 10 -22 14 -48z"/>
<path d="M6230 860 l0 -370 70 0 71 0 -4 303 c-1 166 -7 313 -11 326 -7 17 -6
23 3 20 7 -3 74 -149 149 -324 l137 -320 113 -3 112 -3 0 371 0 370 -70 0 -71
0 4 -292 c2 -161 7 -305 12 -321 4 -16 3 -27 -2 -27 -6 0 -71 143 -145 318
l-135 317 -117 3 -116 3 0 -371z"/>
<path d="M6990 860 l0 -372 198 4 c192 3 199 4 260 32 139 64 209 191 200 364
-7 150 -76 260 -196 315 -42 20 -68 22 -254 25 l-208 4 0 -372z m365 239 c60
-17 119 -82 140 -153 33 -112 -5 -239 -87 -293 -38 -26 -51 -28 -155 -31
l-113 -4 0 246 0 246 88 0 c48 0 105 -5 127 -11z"/>
<path d="M0 790 l0 -30 80 0 80 0 0 -135 c0 -204 21 -277 106 -362 25 -24 71
-57 102 -71 55 -26 65 -27 255 -30 l197 -4 0 151 0 151 -107 0 c-128 0 -179
19 -221 83 -25 37 -27 50 -31 159 l-3 118 -229 0 -229 0 0 -30z"/>
<path d="M1257 604 c-8 -49 -51 -102 -101 -125 -32 -14 -65 -19 -148 -19
l-108 0 0 -230 0 -230 35 0 35 0 0 79 0 79 163 4 c152 3 166 5 223 32 73 33
133 91 171 166 24 48 28 69 31 168 l4 112 -150 0 -149 0 -6 -36z"/>
</g>
</svg>
