<svg width="497" height="78" viewBox="0 0 497 78" fill="none" xmlns="http://www.w3.org/2000/svg">
<path d="M147.57 9.01L166.95 66.83L186.22 9.01H202.54V76.52H193.46V14.62L172.45 76.52H161.33L140.32 14.62V76.52H131.14V9.01H147.57Z" fill="black" style="fill:black;fill-opacity:1;"/>
<path d="M210.13 40.31C211.39 37.05 213.14 34.21 215.38 31.8C217.62 29.39 220.29 27.52 223.38 26.19C226.47 24.86 229.86 24.2 233.53 24.2C237.2 24.2 240.58 24.86 243.68 26.19C246.77 27.52 249.43 29.39 251.64 31.8C253.85 34.21 255.58 37.05 256.84 40.31C258.1 43.57 258.73 47.14 258.73 51.02V54.39H217.33C217.6 56.77 218.18 58.94 219.06 60.92C219.94 62.89 221.12 64.56 222.58 65.92C224.04 67.28 225.74 68.35 227.68 69.13C229.62 69.91 231.78 70.3 234.16 70.3C238.17 70.3 241.43 69.45 243.95 67.75C246.46 66.05 248.16 63.77 249.05 60.92H258.33C257.72 63.3 256.73 65.53 255.37 67.6C254.01 69.67 252.31 71.46 250.27 72.95C248.23 74.45 245.87 75.64 243.18 76.52C240.49 77.4 237.49 77.85 234.15 77.85C230.07 77.85 226.43 77.19 223.24 75.86C220.04 74.53 217.32 72.66 215.08 70.25C212.84 67.84 211.14 65 209.98 61.73C208.82 58.47 208.25 54.9 208.25 51.02C208.25 47.14 208.88 43.57 210.14 40.31H210.13ZM249.65 47.45C249.51 45.34 249.02 43.3 248.17 41.33C247.32 39.36 246.2 37.64 244.8 36.18C243.41 34.72 241.76 33.55 239.85 32.66C237.95 31.78 235.84 31.33 233.53 31.33C231.22 31.33 229.09 31.77 227.16 32.66C225.22 33.54 223.57 34.72 222.21 36.18C220.85 37.64 219.76 39.34 218.95 41.28C218.13 43.22 217.62 45.28 217.42 47.45H249.65Z" fill="black" style="fill:black;fill-opacity:1;"/>
<path d="M263.72 25.53H272.39V36.75H273.21C273.82 34.85 274.64 33.16 275.66 31.7C276.68 30.24 277.87 29 279.23 27.98C280.59 26.96 282.09 26.18 283.72 25.63C285.35 25.09 287.05 24.81 288.82 24.81C292.49 24.81 295.65 25.86 298.3 27.97C300.95 30.08 302.75 33.21 303.7 37.35H304.41C305.02 35.38 305.87 33.63 306.96 32.1C308.05 30.57 309.31 29.26 310.73 28.17C312.16 27.08 313.72 26.25 315.42 25.67C317.12 25.09 318.89 24.8 320.72 24.8C323.1 24.8 325.27 25.21 327.25 26.02C329.22 26.84 330.92 28.08 332.35 29.74C333.78 31.41 334.86 33.48 335.61 35.96C336.36 38.44 336.73 41.38 336.73 44.78V76.49H327.86V45.9C327.86 41.28 326.92 37.91 325.06 35.8C323.19 33.69 320.59 32.64 317.26 32.64C315.36 32.64 313.6 33.03 312.01 33.81C310.41 34.59 309.07 35.77 307.98 37.33C306.89 38.89 306.06 40.87 305.48 43.25C304.9 45.63 304.61 48.38 304.61 51.51V76.49H295.94V45.9C295.94 41.28 295 37.91 293.14 35.8C291.27 33.69 288.67 32.64 285.34 32.64C284.12 32.64 282.77 32.88 281.31 33.35C279.85 33.83 278.47 34.73 277.18 36.05C275.89 37.38 274.8 39.28 273.92 41.76C273.04 44.24 272.59 47.49 272.59 51.5V76.48H263.72V25.53Z" fill="black" style="fill:black;fill-opacity:1;"/>
<path d="M339.9 9.01H349.08L363.76 70.3L378.45 9.01H392.32L407.01 70.3L421.69 9.01H430.77L414.76 76.52H399.16L385.39 18.8L371.52 76.52H355.92L339.91 9.01H339.9Z" fill="black" style="fill:black;fill-opacity:1;"/>
<path d="M430.51 40.47C431.7 37.24 433.3 34.47 435.3 32.16C437.3 29.85 439.7 28.05 442.49 26.76C445.28 25.47 448.27 24.82 451.46 24.82C455.95 24.82 459.82 26.04 463.09 28.49C466.35 30.94 468.8 34.24 470.43 38.38H471.25V25.53H479.82V76.52H471.25V63.67H470.43C468.8 67.82 466.35 71.12 463.09 73.56C459.83 76 455.95 77.23 451.46 77.23C448.26 77.23 445.27 76.58 442.49 75.29C439.7 74 437.3 72.2 435.3 69.88C433.29 67.57 431.7 64.8 430.51 61.57C429.32 58.34 428.73 54.82 428.73 51.02C428.73 47.22 429.32 43.69 430.51 40.47ZM438.72 58.36C439.47 60.6 440.54 62.58 441.93 64.28C443.32 65.98 445.04 67.32 447.08 68.31C449.12 69.3 451.4 69.79 453.91 69.79C456.42 69.79 458.82 69.3 460.9 68.31C462.97 67.33 464.72 65.96 466.15 64.23C467.58 62.5 468.66 60.49 469.41 58.21C470.16 55.93 470.53 53.54 470.53 51.02C470.53 48.5 470.16 46.11 469.41 43.83C468.66 41.55 467.57 39.55 466.15 37.81C464.72 36.08 462.97 34.72 460.9 33.73C458.82 32.75 456.5 32.25 453.91 32.25C451.32 32.25 449.12 32.74 447.08 33.73C445.04 34.72 443.32 36.06 441.93 37.76C440.54 39.46 439.47 41.43 438.72 43.68C437.97 45.92 437.6 48.37 437.6 51.02C437.6 53.67 437.97 56.12 438.72 58.36Z" fill="black" style="fill:black;fill-opacity:1;"/>
<path d="M487.67 4.83H496.54V76.52H487.67V4.83Z" fill="black" style="fill:black;fill-opacity:1;"/>
<path d="M12.75 25.51H0V76.53H12.75V25.51Z" fill="black" style="fill:black;fill-opacity:1;"/>
<path d="M28.69 0H12.75V25.51H28.69V0Z" fill="black" style="fill:black;fill-opacity:1;"/>
<path d="M47.83 25.51H28.7V76.53H47.83V25.51Z" fill="black" style="fill:black;fill-opacity:1;"/>
<path d="M70.15 0H47.83V25.51H70.15V0Z" fill="black" style="fill:black;fill-opacity:1;"/>
<path d="M95.66 25.51H70.15V76.53H95.66V25.51Z" fill="black" style="fill:black;fill-opacity:1;"/>
</svg>
