<svg width="190" height="17" viewBox="0 0 190 17" fill="none" xmlns="http://www.w3.org/2000/svg" class="w-[9.5rem] sm:w-[11.875rem]"><path d="M9.02 16.26C7.54 16.26 6.24667 16.1333 5.14 15.88C4.03333 15.6267 3.18 15.32 2.58 14.96C1.98 14.6 1.5 14.1667 1.14 13.66C0.793333 13.14 0.566667 12.6733 0.46 12.26C0.366667 11.8467 0.32 11.4067 0.32 10.94V10.72H5.18C5.28667 12.2933 6.76 13.08 9.6 13.08H9.88C10.8133 13.08 11.5867 13.04 12.2 12.96C12.8133 12.8667 13.26 12.74 13.54 12.58C13.82 12.42 14.0067 12.26 14.1 12.1C14.1933 11.9267 14.24 11.7267 14.24 11.5C14.24 11.18 14.16 10.9267 14 10.74C13.84 10.5533 13.4667 10.3933 12.88 10.26C12.2933 10.1133 11.4467 10.0267 10.34 10L7.78 9.94C2.94 9.80667 0.52 8.35333 0.52 5.58V5.4C0.52 4.78667 0.626667 4.23333 0.84 3.74C1.06667 3.24667 1.45333 2.77333 2 2.32C2.56 1.85333 3.4 1.49333 4.52 1.24C5.64 0.986666 7.00667 0.859999 8.62 0.859999H10C11.36 0.859999 12.56 0.953333 13.6 1.14C14.64 1.32667 15.4667 1.56667 16.08 1.86C16.7067 2.15333 17.2133 2.51333 17.6 2.94C18 3.36667 18.2733 3.79333 18.42 4.22C18.5667 4.63333 18.64 5.08 18.64 5.56V5.76H13.8C13.64 4.57333 12.2067 3.98 9.5 3.98H9.18C8.06 3.98 7.2 4.05333 6.6 4.2C6 4.33333 5.63333 4.48 5.5 4.64C5.38 4.8 5.32 5.00667 5.32 5.26C5.32 5.5 5.38667 5.70667 5.52 5.88C5.65333 6.04 5.98667 6.18667 6.52 6.32C7.05333 6.45333 7.8 6.52667 8.76 6.54L11.26 6.58C14.0467 6.63333 16.0533 7.01333 17.28 7.72C18.5067 8.41333 19.12 9.50667 19.12 11V11.28C19.12 11.8267 19.06 12.32 18.94 12.76C18.82 13.1867 18.5733 13.6267 18.2 14.08C17.8267 14.5333 17.3267 14.9133 16.7 15.22C16.0867 15.5267 15.24 15.78 14.16 15.98C13.0933 16.1667 11.84 16.26 10.4 16.26H9.02ZM20.3722 16V1.12H26.9922L32.1322 10.38L37.2922 1.12H43.6722V16H39.0722V5.7L33.2122 16H30.7122L24.8522 5.7V16H20.3722ZM57.5609 9.92L54.6809 4.34L51.9209 9.92H57.5609ZM60.6809 16L59.2809 13.28H50.2609L48.9209 16H44.1809L51.7009 1.12H57.7409L65.7009 16H60.6809ZM73.5958 16.26C72.1158 16.26 70.8224 16.1333 69.7158 15.88C68.6091 15.6267 67.7558 15.32 67.1558 14.96C66.5558 14.6 66.0758 14.1667 65.7158 13.66C65.3691 13.14 65.1424 12.6733 65.0358 12.26C64.9424 11.8467 64.8958 11.4067 64.8958 10.94V10.72H69.7558C69.8624 12.2933 71.3358 13.08 74.1758 13.08H74.4558C75.3891 13.08 76.1624 13.04 76.7758 12.96C77.3891 12.8667 77.8358 12.74 78.1158 12.58C78.3958 12.42 78.5824 12.26 78.6758 12.1C78.7691 11.9267 78.8158 11.7267 78.8158 11.5C78.8158 11.18 78.7358 10.9267 78.5758 10.74C78.4158 10.5533 78.0425 10.3933 77.4558 10.26C76.8691 10.1133 76.0224 10.0267 74.9158 10L72.3558 9.94C67.5158 9.80667 65.0958 8.35333 65.0958 5.58V5.4C65.0958 4.78667 65.2024 4.23333 65.4158 3.74C65.6424 3.24667 66.0291 2.77333 66.5758 2.32C67.1358 1.85333 67.9758 1.49333 69.0958 1.24C70.2158 0.986666 71.5824 0.859999 73.1958 0.859999H74.5758C75.9358 0.859999 77.1358 0.953333 78.1758 1.14C79.2158 1.32667 80.0424 1.56667 80.6558 1.86C81.2824 2.15333 81.7891 2.51333 82.1758 2.94C82.5758 3.36667 82.8491 3.79333 82.9958 4.22C83.1425 4.63333 83.2158 5.08 83.2158 5.56V5.76H78.3758C78.2158 4.57333 76.7825 3.98 74.0758 3.98H73.7558C72.6358 3.98 71.7758 4.05333 71.1758 4.2C70.5758 4.33333 70.2091 4.48 70.0758 4.64C69.9558 4.8 69.8958 5.00667 69.8958 5.26C69.8958 5.5 69.9624 5.70667 70.0958 5.88C70.2291 6.04 70.5624 6.18667 71.0958 6.32C71.6291 6.45333 72.3758 6.52667 73.3358 6.54L75.8358 6.58C78.6224 6.63333 80.6291 7.01333 81.8558 7.72C83.0824 8.41333 83.6958 9.50667 83.6958 11V11.28C83.6958 11.8267 83.6358 12.32 83.5158 12.76C83.3958 13.1867 83.1491 13.6267 82.7758 14.08C82.4025 14.5333 81.9025 14.9133 81.2758 15.22C80.6625 15.5267 79.8158 15.78 78.7358 15.98C77.6691 16.1667 76.4158 16.26 74.9758 16.26H73.5958ZM84.948 16V1.12H89.608V6.54H99.608V1.12H104.268V16H99.608V10.14H89.608V16H84.948ZM112.185 16V1.12H124.925C126.898 1.12 128.298 1.44 129.125 2.08C129.951 2.70667 130.365 3.52 130.365 4.52V4.8C130.365 5.25333 130.278 5.66667 130.105 6.04C129.931 6.4 129.711 6.69333 129.445 6.92C129.178 7.13333 128.925 7.3 128.685 7.42C128.458 7.54 128.231 7.63333 128.005 7.7C128.325 7.78 128.638 7.89333 128.945 8.04C129.265 8.18667 129.605 8.4 129.965 8.68C130.338 8.96 130.638 9.34 130.865 9.82C131.091 10.2867 131.205 10.8267 131.205 11.44V11.72C131.205 14.5733 129.151 16 125.045 16H112.185ZM124.125 4.26H116.845V6.68H124.125C125.205 6.68 125.745 6.28 125.745 5.48V5.44C125.745 4.65333 125.205 4.26 124.125 4.26ZM124.525 9.84H116.845V12.76H124.525C125.751 12.76 126.365 12.2733 126.365 11.3V11.22C126.365 10.3 125.751 9.84 124.525 9.84ZM132.356 1.12H137.016V12.3H147.356V16H132.356V1.12ZM158.032 0.859999H158.892C160.185 0.859999 161.359 0.953333 162.412 1.14C163.465 1.31333 164.345 1.54667 165.052 1.84C165.772 2.13333 166.399 2.49333 166.932 2.92C167.465 3.34667 167.879 3.77333 168.172 4.2C168.479 4.62667 168.725 5.09333 168.912 5.6C169.099 6.10667 169.219 6.56 169.272 6.96C169.325 7.36 169.352 7.78 169.352 8.22V8.82C169.352 9.24667 169.325 9.66 169.272 10.06C169.219 10.46 169.099 10.92 168.912 11.44C168.725 11.9467 168.485 12.42 168.192 12.86C167.899 13.2867 167.479 13.72 166.932 14.16C166.399 14.5867 165.779 14.9533 165.072 15.26C164.365 15.5533 163.479 15.7933 162.412 15.98C161.359 16.1667 160.185 16.26 158.892 16.26H158.032C156.739 16.26 155.559 16.1667 154.492 15.98C153.425 15.7933 152.539 15.5533 151.832 15.26C151.125 14.9533 150.499 14.5867 149.952 14.16C149.419 13.72 148.999 13.2867 148.692 12.86C148.399 12.42 148.159 11.9467 147.972 11.44C147.799 10.92 147.685 10.46 147.632 10.06C147.579 9.66 147.552 9.24667 147.552 8.82V8.22C147.552 7.78 147.579 7.36667 147.632 6.98C147.685 6.58 147.799 6.12667 147.972 5.62C148.159 5.1 148.399 4.62667 148.692 4.2C148.999 3.77333 149.419 3.34667 149.952 2.92C150.485 2.49333 151.105 2.13333 151.812 1.84C152.532 1.54667 153.425 1.31333 154.492 1.14C155.559 0.953333 156.739 0.859999 158.032 0.859999ZM164.472 8.36C164.472 7.98667 164.425 7.63333 164.332 7.3C164.239 6.95333 164.059 6.60667 163.792 6.26C163.525 5.9 163.179 5.59333 162.752 5.34C162.325 5.08667 161.739 4.88 160.992 4.72C160.259 4.54667 159.412 4.46 158.452 4.46C154.439 4.46 152.432 5.76 152.432 8.36V8.6C152.432 9.08 152.512 9.53333 152.672 9.96C152.845 10.3867 153.132 10.8133 153.532 11.24C153.945 11.6667 154.572 12.0067 155.412 12.26C156.252 12.5133 157.265 12.64 158.452 12.64C159.639 12.64 160.645 12.52 161.472 12.28C162.312 12.0267 162.939 11.6933 163.352 11.28C163.765 10.8533 164.052 10.4267 164.212 10C164.385 9.57333 164.472 9.12 164.472 8.64V8.36ZM170.706 16V1.12H183.446C185.419 1.12 186.819 1.44 187.646 2.08C188.472 2.70667 188.886 3.52 188.886 4.52V4.8C188.886 5.25333 188.799 5.66667 188.626 6.04C188.452 6.4 188.232 6.69333 187.966 6.92C187.699 7.13333 187.446 7.3 187.206 7.42C186.979 7.54 186.752 7.63333 186.526 7.7C186.846 7.78 187.159 7.89333 187.466 8.04C187.786 8.18667 188.126 8.4 188.486 8.68C188.859 8.96 189.159 9.34 189.386 9.82C189.612 10.2867 189.726 10.8267 189.726 11.44V11.72C189.726 14.5733 187.672 16 183.566 16H170.706ZM182.646 4.26H175.366V6.68H182.646C183.726 6.68 184.266 6.28 184.266 5.48V5.44C184.266 4.65333 183.726 4.26 182.646 4.26ZM183.046 9.84H175.366V12.76H183.046C184.272 12.76 184.886 12.2733 184.886 11.3V11.22C184.886 10.3 184.272 9.84 183.046 9.84Z" fill="url(#paint0_linear_2035_29)"></path><defs><linearGradient id="paint0_linear_2035_29" x1="0" y1="10" x2="190" y2="10" gradientUnits="userSpaceOnUse"><stop stop-color="#9597C6"></stop><stop offset="1" stop-color="white"></stop></linearGradient></defs></svg>